<!-- <?xml version="1.0" ?><!DOCTYPE svg  PUBLIC '-//W3C//DTD SVG 1.1//EN'  'http://www.w3.org/Graphics/SVG/1.1/DTD/svg11.dtd'><svg enable-background="new 0 0 30 30" height="40px" id="Capa_1" version="1.1" viewBox="0 0 30 30" width="40px" xml:space="preserve" xmlns="http://www.w3.org/2000/svg" xmlns:xlink="http://www.w3.org/1999/xlink"><path d="M28.7,10.2c-2.5-3-7.6-4.8-13.7-4.8c0,0,0,0,0,0h0c0,0,0,0,0,0c-6,0-11.2,1.8-13.7,4.8c-1,1.2-1.4,2.6-1.1,4  c0.2,1.2,1,2.3,2,2.8c0.6,0.3,1.3,0.4,1.9,0.4c0.3,0,0.7,0,1-0.1c-0.2,0.6-0.3,1.2-0.4,1.9c-0.2,1.8,0.1,3.1,1,4.1  c1,1.2,2.6,1.3,3.2,1.3c0.2,0,0.3,0,0.3,0h11.7c1.3,0,2.5-0.5,3.2-1.4c1-1.2,1.2-2.9,1.1-4c-0.1-0.6-0.2-1.3-0.4-1.9  c0.3,0.1,0.7,0.1,1.1,0.1c0.6,0,1.3-0.1,1.9-0.4c1-0.5,1.8-1.6,2-2.8C30,12.8,29.7,11.3,28.7,10.2z M23,22.2  c-0.5,0.6-1.2,0.9-2.1,0.9l-11.8,0c-0.1,0-1.5,0.1-2.3-0.8c-0.5-0.6-0.7-1.6-0.6-2.9c0.5-4,3.2-6.4,3.7-6.8c1.4-1.1,3.3-1.8,5.2-1.8  c1.9,0,3.6,0.6,4.9,1.8c1.9,1.6,3.3,4.3,3.7,6.8C23.8,20.2,23.7,21.4,23,22.2z M28.3,13.9c-0.2,0.8-0.6,1.5-1.3,1.8  c-1.1,0.6-2.6,0.1-3-0.1c-0.7-1.6-1.8-3-3.1-4.1c-1.6-1.4-3.7-2.1-5.9-2.1c-2.2,0-4.4,0.8-6.1,2.1c-0.4,0.3-2.1,1.8-3.2,4.2  c-0.5,0.2-1.8,0.6-2.8,0c-0.6-0.3-1.1-1-1.3-1.8c-0.2-0.9,0.1-1.9,0.8-2.7C4.7,8.5,9.4,6.9,15,6.9c5.6,0,10.3,1.6,12.5,4.3  C28.2,12,28.5,12.9,28.3,13.9z M15,12.4c-2.2,0-4.1,1.6-4.1,3.5s1.8,3.5,4.1,3.5c2.2,0,4.1-1.6,4.1-3.5S17.2,12.4,15,12.4z M15,17.9  c-1.4,0-2.6-0.9-2.6-2s1.1-2,2.6-2c1.4,0,2.6,0.9,2.6,2S16.4,17.9,15,17.9z" fill="#ffa400"/></svg> -->

<svg aria-hidden="true" focusable="false" data-prefix="fas" data-icon="motorcycle" enable-background="new 0 0 30 30" height="40px" class="svg-inline--fa fa-motorcycle fa-w-20" role="img" xmlns="http://www.w3.org/2000/svg" viewBox="0 0 640 512"><path fill="currentColor" d="M512.9 192c-14.9-.1-29.1 2.3-42.4 6.9L437.6 144H520c13.3 0 24-10.7 24-24V88c0-13.3-10.7-24-24-24h-45.3c-6.8 0-13.3 2.9-17.8 7.9l-37.5 41.7-22.8-38C392.2 68.4 384.4 64 376 64h-80c-8.8 0-16 7.2-16 16v16c0 8.8 7.2 16 16 16h66.4l19.2 32H227.9c-17.7-23.1-44.9-40-99.9-40H72.5C59 104 47.7 115 48 128.5c.2 13 10.9 23.5 24 23.5h56c24.5 0 38.7 10.9 47.8 24.8l-11.3 20.5c-13-3.9-26.9-5.7-41.3-5.2C55.9 194.5 1.6 249.6 0 317c-1.6 72.1 56.3 131 128 131 59.6 0 109.7-40.8 124-96h84.2c13.7 0 24.6-11.4 24-25.1-2.1-47.1 17.5-93.7 56.2-125l12.5 20.8c-27.6 23.7-45.1 58.9-44.8 98.2.5 69.6 57.2 126.5 126.8 127.1 71.6.7 129.8-57.5 129.2-129.1-.7-69.6-57.6-126.4-127.2-126.9zM128 400c-44.1 0-80-35.9-80-80s35.9-80 80-80c4.2 0 8.4.3 12.5 1L99 316.4c-8.8 16 2.8 35.6 21 35.6h81.3c-12.4 28.2-40.6 48-73.3 48zm463.9-75.6c-2.2 40.6-35 73.4-75.5 75.5-46.1 2.5-84.4-34.3-84.4-79.9 0-21.4 8.4-40.8 22.1-55.1l49.4 82.4c4.5 7.6 14.4 10 22 5.5l13.7-8.2c7.6-4.5 10-14.4 5.5-22l-48.6-80.9c5.2-1.1 10.5-1.6 15.9-1.6 45.6-.1 82.3 38.2 79.9 84.3z"></path></svg>